REM DIRINDEX 1\5,1\2\6,1\2\7,1\3\8,1\3\9,1\4\10,1\4\11,1\4\12
REM DIRNAME folder01,folder02,folder03,folder04,folder05,folder06,folder07,folder08,folder09,folder10,folder11,folder12
TITLE ""
FILE "EJE_DB3000_5th_3B_03.mp3" MP3
  TRACK 01 AUDIO
    TITLE "0:"
    INDEX 01 00:00:00
  TRACK 02 AUDIO
    TITLE "10:cjc026_08466"
    INDEX 01 00:00:07
  TRACK 03 AUDIO
    TITLE "0:"
    INDEX 01 00:01:01
  TRACK 04 AUDIO
    TITLE "11:cjc026_08467"
    INDEX 01 00:01:30
  TRACK 05 AUDIO
    TITLE "0:"
    INDEX 01 00:02:42
  TRACK 06 AUDIO
    TITLE "12:cjc026_08468"
    INDEX 01 00:02:69
  TRACK 07 AUDIO
    TITLE "0:"
    INDEX 01 00:03:64
  TRACK 08 AUDIO
    TITLE "10:cjc026_08469"
    INDEX 01 00:04:17
  TRACK 09 AUDIO
    TITLE "0:"
    INDEX 01 00:05:10
  TRACK 10 AUDIO
    TITLE "11:cjc026_08470"
    INDEX 01 00:05:36
  TRACK 11 AUDIO
    TITLE "0:"
    INDEX 01 00:06:51
  TRACK 12 AUDIO
    TITLE "12:cjc026_08471"
    INDEX 01 00:07:02
  TRACK 13 AUDIO
    TITLE "0:"
    INDEX 01 00:07:70
  TRACK 14 AUDIO
    TITLE "10:cjc026_08472"
    INDEX 01 00:08:23
  TRACK 15 AUDIO
    TITLE "0:"
    INDEX 01 00:09:22
  TRACK 16 AUDIO
    TITLE "11:cjc026_08473"
    INDEX 01 00:09:49
  TRACK 17 AUDIO
    TITLE "0:"
    INDEX 01 00:10:57
  TRACK 18 AUDIO
    TITLE "12:cjc026_08474"
    INDEX 01 00:11:09
  TRACK 19 AUDIO
    TITLE "0:"
    INDEX 01 00:12:09
  TRACK 20 AUDIO
    TITLE "10:cjc026_08475"
    INDEX 01 00:12:36
  TRACK 21 AUDIO
    TITLE "0:"
    INDEX 01 00:13:35
  TRACK 22 AUDIO
    TITLE "11:cjc026_08476"
    INDEX 01 00:13:59
  TRACK 23 AUDIO
    TITLE "0:"
    INDEX 01 00:14:66
  TRACK 24 AUDIO
    TITLE "12:cjc026_08477"
    INDEX 01 00:15:17
  TRACK 25 AUDIO
    TITLE "0:"
    INDEX 01 00:16:16
  TRACK 26 AUDIO
    TITLE "10:cjc026_08478"
    INDEX 01 00:16:44
  TRACK 27 AUDIO
    TITLE "0:"
    INDEX 01 00:17:41
  TRACK 28 AUDIO
    TITLE "11:cjc026_08479"
    INDEX 01 00:17:67
  TRACK 29 AUDIO
    TITLE "0:"
    INDEX 01 00:19:09
  TRACK 30 AUDIO
    TITLE "12:cjc026_08480"
    INDEX 01 00:19:36
  TRACK 31 AUDIO
    TITLE "0:"
    INDEX 01 00:20:32
  TRACK 32 AUDIO
    TITLE "10:cjc026_08481"
    INDEX 01 00:20:59
  TRACK 33 AUDIO
    TITLE "0:"
    INDEX 01 00:21:51
  TRACK 34 AUDIO
    TITLE "11:cjc026_08482"
    INDEX 01 00:22:05
  TRACK 35 AUDIO
    TITLE "0:"
    INDEX 01 00:22:70
  TRACK 36 AUDIO
    TITLE "12:cjc026_08483"
    INDEX 01 00:23:22
  TRACK 37 AUDIO
    TITLE "0:"
    INDEX 01 00:24:16
  TRACK 38 AUDIO
    TITLE "10:cjc026_08484"
    INDEX 01 00:24:43
  TRACK 39 AUDIO
    TITLE "0:"
    INDEX 01 00:25:48
  TRACK 40 AUDIO
    TITLE "11:cjc026_08485"
    INDEX 01 00:26:03
  TRACK 41 AUDIO
    TITLE "0:"
    INDEX 01 00:27:22
  TRACK 42 AUDIO
    TITLE "12:cjc026_08486"
    INDEX 01 00:27:49
  TRACK 43 AUDIO
    TITLE "0:"
    INDEX 01 00:28:55
  TRACK 44 AUDIO
    TITLE "10:cjc026_08487"
    INDEX 01 00:29:09
  TRACK 45 AUDIO
    TITLE "0:"
    INDEX 01 00:30:14
  TRACK 46 AUDIO
    TITLE "11:cjc026_08488"
    INDEX 01 00:30:42
  TRACK 47 AUDIO
    TITLE "0:"
    INDEX 01 00:31:41
  TRACK 48 AUDIO
    TITLE "12:cjc026_08489"
    INDEX 01 00:31:69
  TRACK 49 AUDIO
    TITLE "0:"
    INDEX 01 00:32:74
  TRACK 50 AUDIO
    TITLE "10:cjc026_08490"
    INDEX 01 00:33:26
  TRACK 51 AUDIO
    TITLE "0:"
    INDEX 01 00:34:24
  TRACK 52 AUDIO
    TITLE "11:cjc026_08491"
    INDEX 01 00:34:51
  TRACK 53 AUDIO
    TITLE "0:"
    INDEX 01 00:35:61
  TRACK 54 AUDIO
    TITLE "12:cjc026_08492"
    INDEX 01 00:36:11
  TRACK 55 AUDIO
    TITLE "0:"
    INDEX 01 00:37:08
  TRACK 56 AUDIO
    TITLE "10:cjc026_08493"
    INDEX 01 00:37:38
  TRACK 57 AUDIO
    TITLE "0:"
    INDEX 01 00:38:45
  TRACK 58 AUDIO
    TITLE "11:cjc026_08494"
    INDEX 01 00:38:73
  TRACK 59 AUDIO
    TITLE "0:"
    INDEX 01 00:40:23
  TRACK 60 AUDIO
    TITLE "12:cjc026_08495"
    INDEX 01 00:40:50
  TRACK 61 AUDIO
    TITLE "0:"
    INDEX 01 00:41:59
  TRACK 62 AUDIO
    TITLE "10:cjc026_08496"
    INDEX 01 00:42:08
  TRACK 63 AUDIO
    TITLE "0:"
    INDEX 01 00:43:01
  TRACK 64 AUDIO
    TITLE "11:cjc026_08497"
    INDEX 01 00:43:29
  TRACK 65 AUDIO
    TITLE "0:"
    INDEX 01 00:44:12
  TRACK 66 AUDIO
    TITLE "12:cjc026_08498"
    INDEX 01 00:44:38
  TRACK 67 AUDIO
    TITLE "0:"
    INDEX 01 00:45:32
  TRACK 68 AUDIO
    TITLE "10:cjc026_08499"
    INDEX 01 00:45:59
  TRACK 69 AUDIO
    TITLE "0:"
    INDEX 01 00:46:53
  TRACK 70 AUDIO
    TITLE "11:cjc026_08500"
    INDEX 01 00:47:03
  TRACK 71 AUDIO
    TITLE "0:"
    INDEX 01 00:48:00
  TRACK 72 AUDIO
    TITLE "12:cjc026_08501"
    INDEX 01 00:48:26
  TRACK 73 AUDIO
    TITLE "0:"
    INDEX 01 00:49:20
  TRACK 74 AUDIO
    TITLE "10:cjc026_08502"
    INDEX 01 00:49:47
  TRACK 75 AUDIO
    TITLE "0:"
    INDEX 01 00:50:41
  TRACK 76 AUDIO
    TITLE "11:cjc026_08503"
    INDEX 01 00:50:68
  TRACK 77 AUDIO
    TITLE "0:"
    INDEX 01 00:52:02
  TRACK 78 AUDIO
    TITLE "12:cjc026_08504"
    INDEX 01 00:52:28
  TRACK 79 AUDIO
    TITLE "0:"
    INDEX 01 00:53:21
